<?xml version="1.0" encoding="UTF-8" standalone="no"?>
<!-- Created with Inkscape (http://www.inkscape.org/) -->

<svg
   width="32"
   height="4.7135782"
   viewBox="0 0 8.4666666 1.2471342"
   version="1.1"
   id="svg1"
   xml:space="preserve"
   inkscape:version="1.3.2 (091e20e, 2023-11-25, custom)"
   sodipodi:docname="logo.colour.svg"
   inkscape:export-filename="logo.colour.png"
   inkscape:export-xdpi="1920"
   inkscape:export-ydpi="1920"
   xmlns:inkscape="http://www.inkscape.org/namespaces/inkscape"
   xmlns:sodipodi="http://sodipodi.sourceforge.net/DTD/sodipodi-0.dtd"
   xmlns="http://www.w3.org/2000/svg"
   xmlns:svg="http://www.w3.org/2000/svg"
   xmlns:rdf="http://www.w3.org/1999/02/22-rdf-syntax-ns#"
   xmlns:cc="http://creativecommons.org/ns#"
   xmlns:dc="http://purl.org/dc/elements/1.1/"><title
     id="title2">pocket doc logo</title><sodipodi:namedview
     id="namedview1"
     pagecolor="#ffffff"
     bordercolor="#000000"
     borderopacity="0.25"
     inkscape:showpageshadow="2"
     inkscape:pageopacity="0.0"
     inkscape:pagecheckerboard="0"
     inkscape:deskcolor="#d1d1d1"
     inkscape:document-units="mm"
     inkscape:zoom="16"
     inkscape:cx="6.5"
     inkscape:cy="1.53125"
     inkscape:window-width="1920"
     inkscape:window-height="991"
     inkscape:window-x="-9"
     inkscape:window-y="-9"
     inkscape:window-maximized="1"
     inkscape:current-layer="layer1" /><defs
     id="defs1" /><g
     inkscape:label="Layer 1"
     inkscape:groupmode="layer"
     id="layer1"
     transform="translate(1.7399711e-7,-3.6097662)"><g
       id="g2"
       transform="matrix(0.99276118,0,0,0.99276118,0.05937347,0.01012339)"><path
         d="m 0.33872577,4.7787072 q -0.0313678,0 -0.052755,-0.021387 -0.0213872,-0.021387 -0.0213872,-0.052755 V 3.7392891 q 0,-0.032794 0.0213872,-0.052755 0.0213872,-0.021387 0.052755,-0.021387 h 0.28516268 q 0.10693605,0 0.18963321,0.047052 0.0826969,0.047052 0.12832324,0.1311749 0.0470522,0.082697 0.0470522,0.191059 0,0.1040843 -0.0470522,0.1853557 -0.0456263,0.081271 -0.12832324,0.1268974 -0.0826969,0.045626 -0.18963321,0.045626 H 0.41286806 v 0.3122531 q 0,0.031368 -0.0213872,0.052755 -0.0199613,0.021387 -0.0527551,0.021387 z m 0.0741423,-0.5232736 h 0.21102039 q 0.0655875,0 0.11549092,-0.028516 0.0499031,-0.028516 0.07842,-0.07842 0.0285159,-0.049903 0.0285159,-0.1140651 0,-0.068439 -0.0285159,-0.1197684 -0.0285165,-0.052755 -0.07842,-0.082697 -0.0499035,-0.029942 -0.11549092,-0.029942 H 0.41286806 Z M 1.4636909,4.7844105 q -0.1154909,0 -0.2038913,-0.049903 -0.088401,-0.051329 -0.1397298,-0.1397297 -0.049903,-0.089827 -0.049903,-0.2053172 0,-0.1169167 0.049903,-0.2053171 0.051329,-0.089827 0.1397298,-0.1397297 0.088401,-0.051329 0.2038913,-0.051329 0.114065,0 0.2024655,0.051329 0.088401,0.049903 0.1383038,0.1397297 0.051329,0.088401 0.051329,0.2053171 0,0.1154909 -0.049903,0.2053172 -0.049903,0.088401 -0.1383039,0.1397297 -0.088401,0.049903 -0.2038914,0.049903 z m 0,-0.1283233 q 0.074142,0 0.1311748,-0.03422 0.057033,-0.03422 0.088401,-0.094104 0.032794,-0.059884 0.032794,-0.1383039 0,-0.07842 -0.032794,-0.1383039 -0.031368,-0.06131 -0.088401,-0.095529 -0.057033,-0.03422 -0.1311748,-0.03422 -0.074142,0 -0.1311749,0.03422 -0.057033,0.03422 -0.089827,0.095529 -0.032794,0.059884 -0.032794,0.1383039 0,0.07842 0.032794,0.1383039 0.032794,0.059884 0.089827,0.094104 0.057033,0.03422 0.1311749,0.03422 z m 0.9624229,0.1283233 q -0.114065,0 -0.2038912,-0.051329 -0.088401,-0.052755 -0.1397298,-0.1411556 -0.049903,-0.089827 -0.049903,-0.2024655 0,-0.1154908 0.049903,-0.2053171 0.049903,-0.089827 0.1368781,-0.1397297 0.086975,-0.051329 0.1996139,-0.051329 0.084123,0 0.1539879,0.032794 0.069865,0.031368 0.1254715,0.095529 0.019961,0.022813 0.014258,0.047052 -0.0057,0.024239 -0.031368,0.042774 -0.019961,0.014259 -0.0442,0.00998 -0.024239,-0.0057 -0.0442,-0.025665 -0.069865,-0.074142 -0.1739492,-0.074142 -0.072716,0 -0.1283232,0.03422 -0.055607,0.032794 -0.086975,0.092677 -0.031368,0.059884 -0.031368,0.1411554 0,0.076994 0.031368,0.1368781 0.032794,0.059885 0.089827,0.09553 0.057033,0.03422 0.1326007,0.03422 0.049903,0 0.086975,-0.011407 0.038498,-0.012833 0.069865,-0.038496 0.022813,-0.018535 0.047052,-0.019961 0.024239,-0.00285 0.042774,0.012833 0.024239,0.019961 0.027091,0.045626 0.00285,0.024239 -0.017109,0.0442 -0.1026608,0.095528 -0.2566487,0.095528 z m 0.6401901,-0.290866 -0.0884,-0.096955 0.4377248,-0.3906729 q 0.021387,-0.019961 0.047052,-0.018535 0.027091,0.00143 0.045626,0.022813 0.019961,0.021387 0.018535,0.047052 -0.00142,0.025665 -0.022813,0.045626 z m -0.067013,0.2851627 q -0.031368,0 -0.051329,-0.018535 -0.018536,-0.019962 -0.018536,-0.051329 V 3.7350117 q 0,-0.031368 0.018535,-0.049903 0.019961,-0.019961 0.051329,-0.019961 0.031368,0 0.049903,0.019961 0.019961,0.018535 0.019961,0.049903 v 0.9738306 q 0,0.031368 -0.019961,0.051329 -0.018535,0.018535 -0.049902,0.018536 z m 0.5090154,-0.00713 q -0.022813,0.018535 -0.051329,0.015683 -0.027091,-0.00143 -0.045626,-0.024239 L 3.1219107,4.405144 3.2217176,4.3110403 3.5182868,4.6760486 q 0.018535,0.022813 0.015684,0.049903 -0.00143,0.025665 -0.025664,0.045626 z m 0.5275524,0.012833 q -0.1183425,0 -0.2110204,-0.049903 -0.091252,-0.051329 -0.1440071,-0.1397298 -0.051329,-0.089826 -0.051329,-0.2053172 0,-0.1169166 0.048477,-0.2053171 0.049903,-0.089827 0.1368781,-0.1397297 0.086975,-0.051329 0.199614,-0.051329 0.1112134,0 0.1910589,0.049903 0.079846,0.048478 0.1211943,0.1354522 0.042774,0.085549 0.042774,0.1981881 0,0.02709 -0.018538,0.045626 -0.018538,0.017109 -0.047052,0.017109 H 3.7293064 V 4.3252985 H 4.2996318 L 4.241173,4.365221 Q 4.239748,4.2939307 4.2126571,4.2383236 4.1855661,4.1812908 4.135663,4.148497 4.0857599,4.1157033 4.0144689,4.1157033 q -0.081271,0 -0.1397298,0.035646 -0.057033,0.035646 -0.086975,0.098381 -0.029942,0.06131 -0.029942,0.1397297 0,0.07842 0.035646,0.1397298 0.035646,0.06131 0.098381,0.096955 0.062736,0.035646 0.1440072,0.035646 0.0442,0 0.089827,-0.015684 0.047052,-0.017109 0.075568,-0.038496 0.021387,-0.015684 0.045626,-0.015684 0.025665,-0.00143 0.0442,0.014258 0.024239,0.021387 0.025665,0.047052 0.00143,0.025665 -0.022813,0.0442 -0.048477,0.038497 -0.1211941,0.062736 -0.07129,0.024239 -0.1368781,0.024239 z m 0.8027331,-0.0057 q -0.07129,0 -0.1283231,-0.035646 -0.057032,-0.037078 -0.089826,-0.099814 -0.032796,-0.062736 -0.032796,-0.1411555 V 3.8219863 q 0,-0.031368 0.019961,-0.051329 0.019961,-0.019961 0.051329,-0.019961 0.031368,0 0.051329,0.019961 0.019961,0.019961 0.019961,0.051329 v 0.6801131 q 0,0.057033 0.031368,0.095529 0.031368,0.038497 0.076994,0.038497 h 0.048477 q 0.025665,0 0.042774,0.019961 0.018538,0.019961 0.018538,0.051329 0,0.031368 -0.024241,0.051329 -0.022813,0.019961 -0.059884,0.019961 z M 4.522061,4.1499234 q -0.029945,0 -0.048477,-0.017109 -0.018533,-0.017109 -0.018533,-0.042774 0,-0.028516 0.018533,-0.045626 0.018538,-0.017109 0.048477,-0.017109 h 0.3293629 q 0.029945,0 0.048477,0.017109 0.018538,0.017109 0.018538,0.045626 0,0.025665 -0.018538,0.042774 -0.018534,0.017109 -0.048477,0.017109 z m 0.6929445,0.6287838 q -0.031368,0 -0.052755,-0.021387 -0.021389,-0.021387 -0.021389,-0.052755 V 3.7392891 q 0,-0.032794 0.021389,-0.052755 0.021389,-0.021387 0.052755,-0.021387 h 0.2580723 q 0.1226199,0 0.2224268,0.041348 0.1012328,0.039922 0.1753751,0.115491 0.074142,0.074142 0.1140651,0.1753751 0.039923,0.1012328 0.039923,0.2238527 0,0.12262 -0.039923,0.2252785 -0.039922,0.1012328 -0.1140651,0.176801 -0.074142,0.074142 -0.1753751,0.1154909 -0.099807,0.039922 -0.2224268,0.039922 z m 0.074142,-0.1311748 h 0.18393 q 0.1197682,0 0.2110204,-0.054181 0.092678,-0.055607 0.145433,-0.1511363 0.052755,-0.096955 0.052755,-0.221001 0,-0.1254716 -0.052755,-0.2210011 Q 5.7767761,3.9046835 5.6840982,3.8505026 5.592846,3.7963216 5.4730778,3.7963216 h -0.18393 z m 1.307472,0.1368781 q -0.1154909,0 -0.2038914,-0.049903 -0.088401,-0.051329 -0.1397297,-0.1397297 -0.049903,-0.089827 -0.049903,-0.2053172 0,-0.1169167 0.049903,-0.2053171 0.051329,-0.089827 0.1397297,-0.1397297 0.088401,-0.051329 0.2038914,-0.051329 0.1140651,0 0.2024655,0.051329 0.088401,0.049903 0.1383039,0.1397297 0.051329,0.088401 0.051329,0.2053171 0,0.1154909 -0.049903,0.2053172 -0.049903,0.088401 -0.1383038,0.1397297 -0.088401,0.049903 -0.2038916,0.049903 z m 0,-0.1283233 q 0.074142,0 0.1311748,-0.03422 0.057033,-0.03422 0.088401,-0.094104 0.032792,-0.059884 0.032792,-0.1383039 0,-0.07842 -0.032792,-0.1383039 -0.031368,-0.06131 -0.088401,-0.095529 -0.057033,-0.03422 -0.1311748,-0.03422 -0.074142,0 -0.1311748,0.03422 -0.057033,0.03422 -0.089827,0.095529 -0.032792,0.059884 -0.032792,0.1383039 0,0.07842 0.032792,0.1383039 0.032792,0.059884 0.089827,0.094104 0.057033,0.03422 0.1311748,0.03422 z m 0.9624233,0.1283233 q -0.1140651,0 -0.2038914,-0.051329 -0.088401,-0.052755 -0.1397297,-0.1411556 -0.049903,-0.089827 -0.049903,-0.2024655 0,-0.1154908 0.049903,-0.2053171 0.049903,-0.089827 0.1368781,-0.1397297 0.086975,-0.051329 0.1996139,-0.051329 0.084123,0 0.1539878,0.032794 0.069865,0.031368 0.1254717,0.095529 0.019961,0.022813 0.014258,0.047052 -0.0057,0.024239 -0.031368,0.042774 -0.019961,0.014259 -0.044198,0.00998 -0.024241,-0.0057 -0.044198,-0.025665 -0.069865,-0.074142 -0.1739493,-0.074142 -0.072716,0 -0.1283233,0.03422 -0.055607,0.032794 -0.086975,0.092677 -0.031368,0.059884 -0.031368,0.1411554 0,0.076994 0.031368,0.1368781 0.032796,0.059885 0.089827,0.09553 0.057033,0.03422 0.1326006,0.03422 0.049903,0 0.086975,-0.011407 0.038499,-0.012833 0.069865,-0.038496 0.022813,-0.018535 0.047052,-0.019961 0.024241,-0.00285 0.042774,0.012833 0.024241,0.019961 0.027093,0.045626 0.00283,0.024239 -0.017109,0.0442 -0.1026586,0.09553 -0.2566465,0.09553 z m 0.5446603,0.017109 q -0.039923,0 -0.069865,-0.028516 -0.028516,-0.029942 -0.028516,-0.069865 0,-0.041348 0.028516,-0.069864 0.029945,-0.029942 0.069865,-0.029942 0.041351,0 0.069864,0.029942 0.028516,0.028516 0.028516,0.069864 0,0.039923 -0.028516,0.069865 -0.028516,0.028516 -0.069864,0.028516 z"
         id="text1"
         style="font-weight:bold;font-size:3.175px;font-family:Comfortaa;-inkscape-font-specification:'Comfortaa Bold';fill:#acacde;fill-opacity:1;stroke-width:0.118818"
         aria-label="PocketDoc." /><path
         d="m 0.28084818,4.8200484 q -0.0313678,0 -0.052755,-0.021387 -0.0213872,-0.021387 -0.0213872,-0.052755 V 3.7806303 q 0,-0.032794 0.0213872,-0.052755 0.0213872,-0.021387 0.052755,-0.021387 h 0.28516268 q 0.10693605,0 0.18963321,0.047052 0.0826969,0.047052 0.12832324,0.1311749 0.0470522,0.082697 0.0470522,0.191059 0,0.1040843 -0.0470522,0.1853557 -0.0456263,0.081271 -0.12832324,0.1268974 -0.0826969,0.045626 -0.18963321,0.045626 H 0.35499047 v 0.3122531 q 0,0.031368 -0.0213872,0.052755 -0.0199613,0.021387 -0.0527551,0.021387 z m 0.0741423,-0.5232736 h 0.21102039 q 0.0655875,0 0.11549092,-0.028516 0.0499031,-0.028516 0.07842,-0.07842 0.0285159,-0.049903 0.0285159,-0.1140651 0,-0.068439 -0.0285159,-0.1197684 -0.0285165,-0.052755 -0.07842,-0.082697 -0.0499035,-0.029942 -0.11549092,-0.029942 H 0.35499047 Z M 1.4058133,4.8257517 q -0.1154909,0 -0.2038913,-0.049903 Q 1.113521,4.7245197 1.0621922,4.636119 1.0122892,4.546292 1.0122892,4.4308018 q 0,-0.1169167 0.049903,-0.2053171 0.051329,-0.089827 0.1397298,-0.1397297 0.088401,-0.051329 0.2038913,-0.051329 0.114065,0 0.2024655,0.051329 0.088401,0.049903 0.1383038,0.1397297 0.051329,0.088401 0.051329,0.2053171 0,0.1154909 -0.049903,0.2053172 -0.049903,0.088401 -0.1383039,0.1397297 -0.088401,0.049903 -0.2038914,0.049903 z m 0,-0.1283233 q 0.074142,0 0.1311748,-0.03422 0.057033,-0.03422 0.088401,-0.094104 0.032794,-0.059884 0.032794,-0.1383039 0,-0.07842 -0.032794,-0.1383039 -0.031368,-0.06131 -0.088401,-0.095529 -0.057033,-0.03422 -0.1311748,-0.03422 -0.074142,0 -0.1311749,0.03422 -0.057033,0.03422 -0.089827,0.095529 -0.032794,0.059884 -0.032794,0.1383039 0,0.07842 0.032794,0.1383039 0.032794,0.059884 0.089827,0.094104 0.057033,0.03422 0.1311749,0.03422 z m 0.9624229,0.1283233 q -0.114065,0 -0.2038912,-0.051329 -0.088401,-0.052755 -0.1397298,-0.1411556 -0.049903,-0.089827 -0.049903,-0.2024655 0,-0.1154908 0.049903,-0.2053171 0.049903,-0.089827 0.1368781,-0.1397297 0.086975,-0.051329 0.1996139,-0.051329 0.084123,0 0.1539879,0.032794 0.069865,0.031368 0.1254715,0.095529 0.019961,0.022813 0.014258,0.047052 -0.0057,0.024239 -0.031368,0.042774 -0.019961,0.014259 -0.0442,0.00998 -0.024239,-0.0057 -0.0442,-0.025665 -0.069865,-0.074142 -0.1739492,-0.074142 -0.072716,0 -0.1283232,0.03422 -0.055607,0.032794 -0.086975,0.092677 -0.031368,0.059884 -0.031368,0.1411554 0,0.076994 0.031368,0.1368781 0.032794,0.059885 0.089827,0.09553 0.057033,0.03422 0.1326007,0.03422 0.049903,0 0.086975,-0.011407 0.038498,-0.012833 0.069865,-0.038496 0.022813,-0.018535 0.047052,-0.019961 0.024239,-0.00285 0.042774,0.012833 0.024239,0.019961 0.027091,0.045626 0.00285,0.024239 -0.017109,0.0442 -0.1026608,0.095528 -0.2566487,0.095528 z m 0.6401901,-0.290866 -0.0884,-0.096955 0.4377248,-0.3906729 q 0.021387,-0.019961 0.047052,-0.018535 0.027091,0.00143 0.045626,0.022813 0.019961,0.021387 0.018535,0.047052 -0.00142,0.025665 -0.022813,0.045626 z m -0.067013,0.2851627 q -0.031368,0 -0.051329,-0.018535 -0.018536,-0.019962 -0.018536,-0.051329 V 3.7763529 q 0,-0.031368 0.018535,-0.049903 0.019961,-0.019961 0.051329,-0.019961 0.031368,0 0.049903,0.019961 0.019961,0.018535 0.019961,0.049903 v 0.9738306 q 0,0.031368 -0.019961,0.051329 -0.018535,0.018535 -0.049902,0.018536 z m 0.5090154,-0.00713 q -0.022813,0.018535 -0.051329,0.015683 -0.027091,-0.00143 -0.045626,-0.024239 L 3.0640331,4.4464852 3.16384,4.3523815 3.4604092,4.7173898 q 0.018535,0.022813 0.015684,0.049903 -0.00143,0.025665 -0.025665,0.045626 z m 0.5275524,0.012833 q -0.1183425,0 -0.2110204,-0.049903 -0.091252,-0.051329 -0.1440071,-0.1397298 -0.051329,-0.089826 -0.051329,-0.2053172 0,-0.1169166 0.048477,-0.2053171 0.049903,-0.089827 0.1368781,-0.1397297 0.086975,-0.051329 0.199614,-0.051329 0.1112134,0 0.1910589,0.049903 0.079846,0.048478 0.1211943,0.1354522 0.042774,0.085549 0.042774,0.1981881 0,0.02709 -0.018538,0.045626 -0.018538,0.017109 -0.047052,0.017109 H 3.6714288 V 4.3666397 h 0.5703254 l -0.058459,0.039923 q -0.00143,-0.07129 -0.028516,-0.1268974 -0.027091,-0.057033 -0.076994,-0.089827 -0.049903,-0.032794 -0.1211941,-0.032794 -0.081271,0 -0.1397298,0.035646 -0.057033,0.035646 -0.086975,0.098381 -0.029942,0.06131 -0.029942,0.1397297 0,0.07842 0.035646,0.1397298 0.035646,0.06131 0.098381,0.096955 0.062736,0.035646 0.1440072,0.035646 0.0442,0 0.089827,-0.015684 0.047052,-0.017109 0.075568,-0.038496 0.021387,-0.015684 0.045626,-0.015684 0.025665,-0.00143 0.0442,0.014258 0.024239,0.021387 0.025665,0.047052 0.00143,0.025665 -0.022813,0.0442 -0.048477,0.038497 -0.1211941,0.062736 -0.07129,0.024239 -0.1368781,0.024239 z m 0.8027331,-0.0057 q -0.07129,0 -0.1283231,-0.035646 -0.057032,-0.037078 -0.089826,-0.099814 -0.032796,-0.062736 -0.032796,-0.1411555 V 3.8633275 q 0,-0.031368 0.019961,-0.051329 0.019961,-0.019961 0.051329,-0.019961 0.031368,0 0.051329,0.019961 0.019961,0.019961 0.019961,0.051329 v 0.6801131 q 0,0.057033 0.031368,0.095529 0.031368,0.038497 0.076994,0.038497 h 0.048477 q 0.025665,0 0.042774,0.019961 0.018538,0.019961 0.018538,0.051329 0,0.031368 -0.024241,0.051329 -0.022813,0.019961 -0.059884,0.019961 z M 4.4641834,4.1912646 q -0.029945,0 -0.048477,-0.017109 -0.018533,-0.017109 -0.018533,-0.042774 0,-0.028516 0.018533,-0.045626 0.018538,-0.017109 0.048477,-0.017109 h 0.3293629 q 0.029945,0 0.048477,0.017109 0.018538,0.017109 0.018538,0.045626 0,0.025665 -0.018538,0.042774 -0.018534,0.017109 -0.048477,0.017109 z m 0.6929445,0.6287838 q -0.031368,0 -0.052755,-0.021387 -0.021389,-0.021387 -0.021389,-0.052755 V 3.7806303 q 0,-0.032794 0.021389,-0.052755 0.021389,-0.021387 0.052755,-0.021387 h 0.2580723 q 0.1226199,0 0.2224268,0.041348 0.1012328,0.039922 0.1753751,0.115491 0.074142,0.074142 0.1140651,0.1753751 0.039923,0.1012328 0.039923,0.2238527 0,0.12262 -0.039923,0.2252785 -0.039922,0.1012328 -0.1140651,0.176801 -0.074142,0.074142 -0.1753751,0.1154909 -0.099807,0.039922 -0.2224268,0.039922 z m 0.074142,-0.1311748 h 0.18393 q 0.1197682,0 0.2110204,-0.054181 0.092678,-0.055607 0.145433,-0.1511363 0.052755,-0.096955 0.052755,-0.221001 0,-0.1254716 -0.052755,-0.2210011 -0.052755,-0.09553 -0.1454327,-0.1497104 -0.091252,-0.054181 -0.2110204,-0.054181 h -0.18393 z m 1.307472,0.1368781 q -0.1154909,0 -0.2038914,-0.049903 Q 6.2464495,4.7245197 6.1951208,4.636119 6.1452178,4.546292 6.1452178,4.4308018 q 0,-0.1169167 0.049903,-0.2053171 0.051329,-0.089827 0.1397297,-0.1397297 0.088401,-0.051329 0.2038914,-0.051329 0.1140651,0 0.2024655,0.051329 0.088401,0.049903 0.1383039,0.1397297 0.051329,0.088401 0.051329,0.2053171 0,0.1154909 -0.049903,0.2053172 -0.049903,0.088401 -0.1383038,0.1397297 -0.088401,0.049903 -0.2038916,0.049903 z m 0,-0.1283233 q 0.074142,0 0.1311748,-0.03422 0.057033,-0.03422 0.088401,-0.094104 0.032792,-0.059884 0.032792,-0.1383039 0,-0.07842 -0.032792,-0.1383039 -0.031368,-0.06131 -0.088401,-0.095529 -0.057033,-0.03422 -0.1311748,-0.03422 -0.074142,0 -0.1311748,0.03422 -0.057033,0.03422 -0.089827,0.095529 -0.032792,0.059884 -0.032792,0.1383039 0,0.07842 0.032792,0.1383039 0.032792,0.059884 0.089827,0.094104 0.057033,0.03422 0.1311748,0.03422 z m 0.9624233,0.1283233 q -0.1140651,0 -0.2038914,-0.051329 -0.088401,-0.052755 -0.1397297,-0.1411556 -0.049903,-0.089827 -0.049903,-0.2024655 0,-0.1154908 0.049903,-0.2053171 0.049903,-0.089827 0.1368781,-0.1397297 0.086975,-0.051329 0.1996139,-0.051329 0.084123,0 0.1539878,0.032794 0.069865,0.031368 0.1254717,0.095529 0.019961,0.022813 0.014258,0.047052 -0.0057,0.024239 -0.031368,0.042774 -0.019961,0.014259 -0.044198,0.00998 -0.024241,-0.0057 -0.044198,-0.025665 -0.069865,-0.074142 -0.1739493,-0.074142 -0.072716,0 -0.1283233,0.03422 -0.055607,0.032794 -0.086975,0.092677 -0.031368,0.059884 -0.031368,0.1411554 0,0.076994 0.031368,0.1368781 0.032796,0.059885 0.089827,0.09553 0.057033,0.03422 0.1326006,0.03422 0.049903,0 0.086975,-0.011407 0.038499,-0.012833 0.069865,-0.038496 0.022813,-0.018535 0.047052,-0.019961 0.024241,-0.00285 0.042774,0.012833 0.024241,0.019961 0.027093,0.045626 0.00283,0.024239 -0.017109,0.0442 -0.1026586,0.09553 -0.2566465,0.09553 z m 0.5446603,0.017109 q -0.039923,0 -0.069865,-0.028516 -0.028516,-0.029942 -0.028516,-0.069865 0,-0.041348 0.028516,-0.069864 0.029945,-0.029942 0.069865,-0.029942 0.041351,0 0.069864,0.029942 0.028516,0.028516 0.028516,0.069864 0,0.039923 -0.028516,0.069865 -0.028516,0.028516 -0.069864,0.028516 z"
         id="path1"
         style="font-weight:bold;font-size:3.175px;font-family:Comfortaa;-inkscape-font-specification:'Comfortaa Bold';fill:#860057;fill-opacity:1;stroke-width:0.118818"
         aria-label="PocketDoc." /></g><text
       xml:space="preserve"
       style="font-style:normal;font-variant:normal;font-weight:bold;font-stretch:normal;font-size:3.175px;font-family:Comfortaa;-inkscape-font-specification:'Comfortaa Bold';fill:#000000;stroke-width:0.264583"
       x="3.2576823"
       y="6.465755"
       id="text2"><tspan
         sodipodi:role="line"
         id="tspan1"
         style="stroke-width:0.264583"
         x="3.2576823"
         y="6.465755"></tspan></text></g><metadata
     id="metadata2"><rdf:RDF><cc:Work
         rdf:about=""><dc:title>pocket doc logo</dc:title></cc:Work></rdf:RDF></metadata></svg>
