<?xml version="1.0" encoding="UTF-8" standalone="no"?>
<!-- Created with Inkscape (http://www.inkscape.org/) -->

<svg
   width="31.999998"
   height="31.999998"
   viewBox="0 0 8.4666661 8.4666661"
   version="1.1"
   id="svg1"
   xml:space="preserve"
   sodipodi:docname="logo.colour.square.svg"
   inkscape:version="1.3.2 (091e20e, 2023-11-25, custom)"
   inkscape:export-filename="logo.colour.square.svg"
   inkscape:export-xdpi="192.00002"
   inkscape:export-ydpi="192.00002"
   xmlns:inkscape="http://www.inkscape.org/namespaces/inkscape"
   xmlns:sodipodi="http://sodipodi.sourceforge.net/DTD/sodipodi-0.dtd"
   xmlns="http://www.w3.org/2000/svg"
   xmlns:svg="http://www.w3.org/2000/svg"><sodipodi:namedview
     id="namedview1"
     pagecolor="#ffffff"
     bordercolor="#000000"
     borderopacity="0.25"
     inkscape:showpageshadow="2"
     inkscape:pageopacity="0.0"
     inkscape:pagecheckerboard="0"
     inkscape:deskcolor="#d1d1d1"
     inkscape:zoom="7.7248296"
     inkscape:cx="13.721985"
     inkscape:cy="37.088197"
     inkscape:window-width="1920"
     inkscape:window-height="991"
     inkscape:window-x="-9"
     inkscape:window-y="-9"
     inkscape:window-maximized="1"
     inkscape:current-layer="layer1" /><defs
     id="defs1" /><g
     id="layer1"><rect
       style="fill:#860057;fill-opacity:1;stroke-width:0.264583"
       id="rect11"
       width="8.4666662"
       height="8.4666662"
       x="2.2252401e-07"
       y="2.2252401e-07"
       ry="1.0583333" /><rect
       style="fill:#f5f5f5;fill-opacity:1;stroke-width:0.248047"
       id="rect12"
       width="7.9375"
       height="7.9375"
       x="0.26458305"
       y="0.26458305"
       ry="0.9921875" /><g
       id="g11"
       transform="matrix(0.85891016,0,0,0.85891016,0.62805916,1.8958817)"><g
         id="text4"
         style="font-weight:bold;font-size:2.41629px;line-height:0.8;font-family:Comfortaa;-inkscape-font-specification:'Comfortaa Bold';fill:#acacde;stroke-width:0.201357"
         aria-label="Pocket&#10;Doc."><path
           d="m 0.39022514,4.1910481 q -0.0531584,0 -0.0894027,-0.036244 -0.0362443,-0.036244 -0.0362443,-0.089403 V 2.4295727 q 0,-0.055575 0.0362443,-0.089403 0.0362444,-0.036244 0.0894027,-0.036244 h 0.48325801 q 0.18122175,0 0.32136655,0.079738 0.1401449,0.079738 0.2174661,0.2222987 0.079738,0.1401448 0.079738,0.3237828 0,0.1763892 -0.079738,0.3141177 Q 1.3349946,3.381591 1.1948497,3.4589123 1.0547049,3.5362335 0.87348315,3.5362335 H 0.51587223 v 0.5291676 q 0,0.053158 -0.0362444,0.089403 -0.0338281,0.036244 -0.0894027,0.036244 z M 0.51587223,3.3042697 h 0.35761092 q 0.11114934,0 0.19571945,-0.048326 0.08457,-0.048326 0.132896,-0.132896 0.048326,-0.08457 0.048326,-0.1933032 0,-0.1159819 -0.048326,-0.2029683 Q 1.1537728,2.6373736 1.0692026,2.5866316 0.98463249,2.5358895 0.87348315,2.5358895 H 0.51587223 Z M 2.2966749,4.2007133 q -0.1957195,0 -0.3455295,-0.08457 -0.14981,-0.086987 -0.2367964,-0.2367965 -0.08457,-0.1522262 -0.08457,-0.3479457 0,-0.1981358 0.08457,-0.3479458 0.086986,-0.1522263 0.2367964,-0.2367964 0.14981,-0.086986 0.3455295,-0.086986 0.1933032,0 0.3431132,0.086986 0.14981,0.08457 0.2343801,0.2367964 0.086986,0.14981 0.086986,0.3479458 0,0.1957195 -0.08457,0.3479457 -0.08457,0.14981 -0.2343801,0.2367965 -0.14981,0.08457 -0.3455292,0.08457 z m 0,-0.2174661 q 0.1256471,0 0.2222987,-0.057991 0.096652,-0.057991 0.14981,-0.1594751 0.055575,-0.1014842 0.055575,-0.2343801 0,-0.132896 -0.055575,-0.2343802 -0.053158,-0.1039004 -0.14981,-0.1618914 -0.096652,-0.057991 -0.2222987,-0.057991 -0.1256471,0 -0.2222987,0.057991 -0.096652,0.057991 -0.1522263,0.1618914 -0.055575,0.1014842 -0.055575,0.2343802 0,0.1328959 0.055575,0.2343801 0.055575,0.1014842 0.1522263,0.1594751 0.096652,0.057991 0.2222987,0.057991 z m 1.6309938,0.2174661 q -0.1933032,0 -0.3455294,-0.086986 -0.14981,-0.089403 -0.2367965,-0.2392128 -0.08457,-0.1522262 -0.08457,-0.3431131 0,-0.1957195 0.08457,-0.3479458 0.08457,-0.1522263 0.2319639,-0.2367964 0.1473937,-0.086986 0.3382806,-0.086986 0.1425611,0 0.2609593,0.055575 0.1183982,0.053158 0.2126335,0.1618914 0.033828,0.038661 0.024163,0.079738 -0.00967,0.041077 -0.053158,0.072489 -0.033828,0.024163 -0.074905,0.016914 -0.041077,-0.00967 -0.074905,-0.043493 -0.1183982,-0.1256471 -0.2947874,-0.1256471 -0.1232308,0 -0.2174661,0.057991 -0.094235,0.055575 -0.1473937,0.1570588 -0.053158,0.1014842 -0.053158,0.2392128 0,0.1304796 0.053158,0.2319638 0.055575,0.1014842 0.1522263,0.1618914 0.096652,0.057991 0.2247149,0.057991 0.08457,0 0.1473937,-0.01933 0.06524,-0.021747 0.1183982,-0.06524 0.038661,-0.031412 0.079738,-0.033828 0.041077,-0.00483 0.072489,0.021747 0.041077,0.033828 0.04591,0.077321 0.00483,0.041077 -0.028995,0.074905 -0.1739749,0.161889 -0.4349343,0.161889 z M 5.0125826,3.7077901 4.8627726,3.5434824 5.6045736,2.8814189 q 0.036244,-0.033828 0.079738,-0.031412 0.04591,0.00242 0.077321,0.038661 0.033828,0.036244 0.031412,0.079738 -0.00242,0.043493 -0.038661,0.077321 z m -0.1135657,0.483258 q -0.053158,0 -0.086986,-0.031412 -0.031412,-0.033828 -0.031412,-0.086987 V 2.4223238 q 0,-0.053158 0.031412,-0.08457 0.033828,-0.033828 0.086986,-0.033828 0.053158,0 0.08457,0.033828 0.033828,0.031412 0.033828,0.08457 v 1.6503261 q 0,0.053158 -0.033828,0.086987 -0.031412,0.031412 -0.08457,0.031411 z m 0.8626156,-0.012081 q -0.038661,0.031412 -0.086987,0.026579 -0.04591,-0.00242 -0.077321,-0.041077 L 5.1068179,3.5579802 5.2759582,3.398505 5.7785465,4.0170753 q 0.031412,0.038661 0.026579,0.08457 -0.00242,0.043493 -0.043493,0.077322 z m 0.8940297,0.021747 q -0.2005521,0 -0.3576109,-0.08457 Q 6.1434087,4.0291567 6.054006,3.8793467 5.9670195,3.7271205 5.9670195,3.531401 q 0,-0.1981358 0.082154,-0.3479458 0.08457,-0.1522263 0.2319638,-0.2367964 0.1473937,-0.086986 0.3382807,-0.086986 0.1884706,0 0.3237828,0.08457 0.1353123,0.082154 0.2053847,0.2295475 0.072489,0.1449774 0.072489,0.3358644 0,0.04591 -0.031412,0.077321 -0.031412,0.028995 -0.079738,0.028995 H 6.1361598 V 3.4226679 H 7.1026759 L 7.003608,3.490324 Q 7.001188,3.3695095 6.955282,3.2752742 6.909372,3.1786222 6.8248023,3.1230479 q -0.08457,-0.055575 -0.2053846,-0.055575 -0.1377286,0 -0.2367965,0.060407 -0.096652,0.060407 -0.1473937,0.166724 -0.050742,0.1039005 -0.050742,0.2367965 0,0.1328959 0.060407,0.2367964 0.060407,0.1039005 0.166724,0.1643077 0.1063168,0.060407 0.2440453,0.060407 0.074905,0 0.1522263,-0.026579 0.079738,-0.028995 0.1280633,-0.06524 0.036244,-0.026579 0.077321,-0.026579 0.043493,-0.00242 0.074905,0.024163 0.041077,0.036244 0.043493,0.079738 0.00242,0.043493 -0.038661,0.074905 -0.082154,0.06524 -0.2053847,0.1063168 -0.1208145,0.041077 -0.2319638,0.041077 z m 1.3603721,-0.00967 q -0.1208145,0 -0.2174661,-0.060407 Q 7.7019166,4.0678174 7.6463419,3.9615006 7.5907672,3.8551838 7.5907672,3.7222879 V 2.5697175 q 0,-0.053158 0.033828,-0.086986 0.033828,-0.033828 0.086986,-0.033828 0.053158,0 0.086987,0.033828 0.033828,0.033828 0.033828,0.086986 v 1.1525704 q 0,0.096652 0.053158,0.1618914 0.053158,0.06524 0.1304797,0.06524 h 0.082154 q 0.043493,0 0.072489,0.033828 0.031412,0.033828 0.031412,0.086986 0,0.053158 -0.041077,0.086987 -0.038661,0.033828 -0.1014842,0.033828 z M 7.4796179,3.1254642 q -0.050742,0 -0.082154,-0.028995 -0.031412,-0.028995 -0.031412,-0.072489 0,-0.048326 0.031412,-0.077321 0.031412,-0.028995 0.082154,-0.028995 h 0.558163 q 0.050742,0 0.082154,0.028995 0.031412,0.028996 0.031412,0.077321 0,0.043493 -0.031412,0.072489 -0.031412,0.028995 -0.082154,0.028995 z"
           id="path8" /><path
           d="m 0.39022514,6.1240802 q -0.0531584,0 -0.0894027,-0.036244 -0.0362443,-0.036244 -0.0362443,-0.089403 V 4.3626048 q 0,-0.055575 0.0362443,-0.089403 0.0362444,-0.036244 0.0894027,-0.036244 h 0.4373485 q 0.20780096,0 0.37694126,0.070072 0.1715566,0.067656 0.2972037,0.1957195 0.125647,0.1256471 0.1933032,0.2972037 0.067656,0.1715566 0.067656,0.3793575 0,0.2078009 -0.067656,0.3817738 -0.067656,0.1715566 -0.1933032,0.29962 Q 1.3760715,5.9863517 1.2045149,6.0564241 1.0353746,6.1240802 0.82757364,6.1240802 Z M 0.51587223,5.9017815 h 0.31170141 q 0.20296836,0 0.35761096,-0.091819 0.1570588,-0.094235 0.2464616,-0.2561267 0.089403,-0.1643078 0.089403,-0.374525 0,-0.2126335 -0.089403,-0.374525 Q 1.3422434,4.6428944 1.1851846,4.5510754 1.030542,4.4592564 0.82757364,4.4592564 H 0.51587223 Z M 2.7316125,6.1337454 q -0.1957195,0 -0.3455295,-0.08457 -0.14981,-0.086986 -0.2367964,-0.2367964 -0.08457,-0.1522263 -0.08457,-0.3479458 0,-0.1981358 0.08457,-0.3479457 0.086986,-0.1522263 0.2367964,-0.2367965 0.14981,-0.086986 0.3455295,-0.086986 0.1933032,0 0.3431132,0.086986 0.14981,0.08457 0.2343801,0.2367965 0.086986,0.1498099 0.086986,0.3479457 0,0.1957195 -0.08457,0.3479458 -0.08457,0.14981 -0.2343801,0.2367964 -0.14981,0.08457 -0.3455292,0.08457 z m 0,-0.2174661 q 0.1256471,0 0.2222987,-0.057991 0.096652,-0.057991 0.14981,-0.1594751 0.055575,-0.1014842 0.055575,-0.2343802 0,-0.1328959 -0.055575,-0.2343801 -0.053158,-0.1039005 -0.14981,-0.1618914 -0.096652,-0.057991 -0.2222987,-0.057991 -0.1256471,0 -0.2222987,0.057991 -0.096652,0.057991 -0.1522263,0.1618914 -0.055575,0.1014842 -0.055575,0.2343801 0,0.132896 0.055575,0.2343802 0.055575,0.1014841 0.1522263,0.1594751 0.096652,0.057991 0.2222987,0.057991 z m 1.630994,0.2174661 q -0.1933032,0 -0.3455295,-0.086986 -0.14981,-0.089403 -0.2367964,-0.2392127 -0.08457,-0.1522263 -0.08457,-0.3431132 0,-0.1957195 0.08457,-0.3479457 0.08457,-0.1522263 0.2319638,-0.2367965 0.1473937,-0.086986 0.3382806,-0.086986 0.1425611,0 0.2609593,0.055575 0.1183982,0.053158 0.2126336,0.1618914 0.033828,0.038661 0.024163,0.079738 -0.00967,0.041077 -0.053158,0.072489 -0.033828,0.024163 -0.074905,0.016914 -0.041077,-0.00967 -0.074905,-0.043493 Q 4.5269142,5.0101705 4.350525,5.0101705 q -0.1232308,0 -0.2174661,0.057991 -0.094235,0.055575 -0.1473937,0.1570588 -0.053158,0.1014842 -0.053158,0.2392127 0,0.1304797 0.053158,0.2319639 0.055575,0.1014842 0.1522263,0.1618914 0.096652,0.057991 0.224715,0.057991 0.08457,0 0.1473936,-0.01933 0.06524,-0.021747 0.1183983,-0.06524 0.038661,-0.031412 0.079738,-0.033828 0.041077,-0.00483 0.072489,0.021747 0.041077,0.033828 0.045909,0.077321 0.00483,0.041077 -0.028995,0.074905 -0.1739729,0.1618915 -0.4349329,0.1618911 z m 0.9230226,0.028996 q -0.067656,0 -0.1183982,-0.048326 -0.048326,-0.050742 -0.048326,-0.1183982 0,-0.070072 0.048326,-0.1183982 0.050742,-0.050742 0.1183982,-0.050742 0.070072,0 0.1183982,0.050742 0.048326,0.048326 0.048326,0.1183982 0,0.067656 -0.048326,0.1183982 -0.048326,0.048326 -0.1183982,0.048326 z"
           id="path9" /></g><g
         id="text8"
         style="font-weight:bold;font-size:2.41629px;line-height:0.8;font-family:Comfortaa;-inkscape-font-specification:'Comfortaa Bold';fill:#860057;stroke-width:0.201357"
         aria-label="Pocket&#10;Doc."><path
           d="m 0.31855526,4.274663 q -0.0531584,0 -0.0894027,-0.036244 Q 0.19290826,4.202175 0.19290826,4.149016 V 2.5131875 q 0,-0.055575 0.0362443,-0.089403 0.0362444,-0.036244 0.0894027,-0.036244 h 0.48325801 q 0.18122175,0 0.32136653,0.079738 0.1401449,0.079738 0.2174661,0.2222987 0.079738,0.1401448 0.079738,0.3237829 0,0.1763891 -0.079738,0.3141177 -0.077321,0.1377285 -0.2174661,0.2150498 -0.14014478,0.077321 -0.32136653,0.077321 H 0.44420234 v 0.5291675 q 0,0.053158 -0.0362443,0.089403 -0.0338281,0.036244 -0.0894028,0.036244 z M 0.44420234,3.3878845 h 0.35761093 q 0.11114934,0 0.19571949,-0.048326 0.0845701,-0.048326 0.13289594,-0.1328959 0.048326,-0.08457 0.048326,-0.1933032 0,-0.115982 -0.048326,-0.2029684 Q 1.0821029,2.7209885 0.99753276,2.6702464 0.91296261,2.6195043 0.80181327,2.6195043 H 0.44420234 Z M 2.225005,4.2843281 q -0.1957195,0 -0.3455295,-0.08457 Q 1.7296656,4.1127715 1.6426791,3.9629616 1.558109,3.8107353 1.558109,3.6150158 q 0,-0.1981358 0.08457,-0.3479458 0.086986,-0.1522262 0.2367964,-0.2367964 0.14981,-0.086986 0.3455295,-0.086986 0.1933032,0 0.3431132,0.086986 0.14981,0.08457 0.2343801,0.2367964 0.086987,0.14981 0.086987,0.3479458 0,0.1957195 -0.08457,0.3479458 -0.08457,0.1498099 -0.2343801,0.2367964 -0.14981,0.08457 -0.3455301,0.08457 z m 0,-0.2174661 q 0.1256471,0 0.2222987,-0.057991 0.096652,-0.057991 0.14981,-0.1594752 0.055575,-0.1014842 0.055575,-0.2343801 0,-0.132896 -0.055575,-0.2343801 -0.053158,-0.1039005 -0.14981,-0.1618915 -0.096652,-0.057991 -0.2222987,-0.057991 -0.1256471,0 -0.2222987,0.057991 -0.096652,0.057991 -0.1522262,0.1618915 -0.055575,0.1014841 -0.055575,0.2343801 0,0.1328959 0.055575,0.2343801 0.055575,0.1014842 0.1522262,0.1594752 0.096652,0.057991 0.2222987,0.057991 z m 1.6309939,0.2174661 q -0.1933032,0 -0.3455295,-0.086986 -0.14981,-0.089403 -0.2367964,-0.2392127 -0.08457,-0.1522263 -0.08457,-0.3431132 0,-0.1957195 0.08457,-0.3479458 0.08457,-0.1522262 0.2319638,-0.2367964 0.1473937,-0.086986 0.3382806,-0.086986 0.1425611,0 0.2609593,0.055575 0.1183982,0.053158 0.2126336,0.1618915 0.033828,0.038661 0.024163,0.079737 -0.00967,0.041077 -0.053158,0.072489 -0.033828,0.024163 -0.074905,0.016914 -0.041077,-0.00967 -0.074905,-0.043493 -0.1183982,-0.125647 -0.2947874,-0.125647 -0.1232308,0 -0.2174661,0.057991 -0.094235,0.055575 -0.1473937,0.1570589 -0.053158,0.1014842 -0.053158,0.2392127 0,0.1304797 0.053158,0.2319638 0.055575,0.1014842 0.1522263,0.1618915 0.096652,0.057991 0.224715,0.057991 0.08457,0 0.1473936,-0.01933 0.06524,-0.021747 0.1183983,-0.06524 0.038661,-0.031412 0.079737,-0.033828 0.041077,-0.00483 0.072489,0.021747 0.041077,0.033828 0.04591,0.077321 0.00483,0.041077 -0.028995,0.074905 Q 4.1169582,4.2843281 3.8559989,4.2843281 Z M 4.9409127,3.791405 4.7911027,3.6270972 5.5329038,2.9650338 q 0.036244,-0.033828 0.079738,-0.031412 0.04591,0.00242 0.077321,0.038661 0.033828,0.036244 0.031412,0.079738 -0.00242,0.043493 -0.038661,0.077321 z M 4.8273471,4.274663 q -0.053158,0 -0.086987,-0.031412 Q 4.7089481,4.209423 4.7089481,4.156265 V 2.5059387 q 0,-0.053158 0.031412,-0.08457 0.033828,-0.033828 0.086987,-0.033828 0.053158,0 0.08457,0.033828 0.033828,0.031412 0.033828,0.08457 v 1.6503261 q 0,0.053158 -0.033828,0.086986 -0.031412,0.031412 -0.08457,0.031412 z M 5.6899626,4.262581 Q 5.6513016,4.293993 5.6029766,4.28916 5.5570676,4.28674 5.5256556,4.248083 L 5.035148,3.641595 5.2042883,3.4821198 5.7068766,4.1006901 q 0.031412,0.038661 0.026579,0.08457 -0.00242,0.043493 -0.043493,0.077321 z m 0.8940297,0.021747 q -0.2005521,0 -0.3576109,-0.08457 Q 6.0717388,4.1127715 5.9823361,3.9629616 5.8953497,3.8107353 5.8953497,3.6150158 q 0,-0.1981358 0.082154,-0.3479458 0.08457,-0.1522262 0.2319639,-0.2367964 0.1473937,-0.086986 0.3382806,-0.086986 0.1884706,0 0.3237828,0.08457 0.1353123,0.082154 0.2053847,0.2295476 0.072489,0.1449774 0.072489,0.3358643 0,0.04591 -0.031412,0.077321 -0.031412,0.028995 -0.079738,0.028995 H 6.06449 V 3.5062827 H 7.031006 L 6.931938,3.5739387 Q 6.9295218,3.4531244 6.8836123,3.358889 6.8377028,3.2622374 6.7531326,3.2066628 6.6685625,3.1510881 6.547748,3.1510881 q -0.1377286,0 -0.2367965,0.060407 -0.096652,0.060407 -0.1473936,0.166724 -0.050742,0.1039004 -0.050742,0.2367964 0,0.1328959 0.060407,0.2367964 0.060407,0.1039005 0.166724,0.1643077 0.1063168,0.060407 0.2440453,0.060407 0.074905,0 0.1522263,-0.026579 0.079738,-0.028995 0.1280634,-0.06524 0.036244,-0.026579 0.077321,-0.026579 0.043493,-0.00242 0.074905,0.024163 0.041077,0.036244 0.043493,0.079738 0.00242,0.043493 -0.038661,0.074905 -0.082154,0.06524 -0.2053846,0.1063168 -0.1208145,0.041077 -0.231963,0.041077 z m 1.3603721,-0.00967 q -0.1208145,0 -0.2174661,-0.060407 Q 7.6302467,4.1514322 7.574672,4.0451154 7.5190973,3.9387987 7.5190973,3.8059027 V 2.6533324 q 0,-0.053158 0.033828,-0.086987 0.033828,-0.033828 0.086986,-0.033828 0.053158,0 0.086987,0.033828 0.033828,0.033828 0.033828,0.086987 v 1.1525703 q 0,0.096652 0.053158,0.1618914 0.053158,0.06524 0.1304797,0.06524 h 0.082154 q 0.043493,0 0.072489,0.033828 0.031412,0.033828 0.031412,0.086986 0,0.053158 -0.041077,0.086986 -0.038661,0.033828 -0.1014842,0.033828 z M 7.407948,3.2090791 q -0.050742,0 -0.082154,-0.028995 -0.031412,-0.028996 -0.031412,-0.072489 0,-0.048326 0.031412,-0.077321 0.031412,-0.028996 0.082154,-0.028996 h 0.558163 q 0.050742,0 0.082154,0.028996 0.031412,0.028995 0.031412,0.077321 0,0.043493 -0.031412,0.072489 -0.031412,0.028995 -0.082154,0.028995 z"
           id="path10" /><path
           d="m 0.31855526,6.207695 q -0.0531584,0 -0.0894027,-0.036244 Q 0.19290826,6.135207 0.19290826,6.082048 V 4.4462196 q 0,-0.055575 0.0362443,-0.089403 0.0362444,-0.036244 0.0894027,-0.036244 h 0.4373485 q 0.20780094,0 0.37694124,0.070072 0.1715566,0.067656 0.2972037,0.1957195 0.1256471,0.1256471 0.1933032,0.2972037 0.067656,0.1715566 0.067656,0.3793575 0,0.207801 -0.067656,0.3817739 Q 1.5556958,5.816256 1.4300487,5.9443194 1.3044016,6.0699665 1.132845,6.1400389 0.9637047,6.207695 0.75590376,6.207695 Z M 0.44420234,5.9853964 h 0.31170142 q 0.20296836,0 0.35761094,-0.091819 0.1570588,-0.094235 0.2464616,-0.2561267 0.089403,-0.1643077 0.089403,-0.374525 0,-0.2126335 -0.089403,-0.3745249 Q 1.2705735,4.7265092 1.1135147,4.6346902 0.95887212,4.5428712 0.75590376,4.5428712 H 0.44420234 Z M 2.6599426,6.2173602 q -0.1957195,0 -0.3455295,-0.08457 -0.14981,-0.086986 -0.2367964,-0.2367964 -0.08457,-0.1522263 -0.08457,-0.3479457 0,-0.1981358 0.08457,-0.3479458 0.086986,-0.1522263 0.2367964,-0.2367964 0.14981,-0.086987 0.3455295,-0.086987 0.1933032,0 0.3431132,0.086987 0.14981,0.08457 0.2343801,0.2367964 0.086987,0.14981 0.086987,0.3479458 0,0.1957194 -0.08457,0.3479457 -0.08457,0.14981 -0.2343801,0.2367964 -0.14981,0.08457 -0.3455302,0.08457 z m 0,-0.2174661 q 0.1256471,0 0.2222987,-0.057991 0.096652,-0.057991 0.14981,-0.1594751 0.055575,-0.1014842 0.055575,-0.2343801 0,-0.132896 -0.055575,-0.2343802 -0.053158,-0.1039005 -0.14981,-0.1618914 -0.096652,-0.057991 -0.2222987,-0.057991 -0.1256471,0 -0.2222987,0.057991 -0.096652,0.057991 -0.1522262,0.1618914 -0.055575,0.1014842 -0.055575,0.2343802 0,0.1328959 0.055575,0.2343801 0.055575,0.1014842 0.1522262,0.1594751 0.096652,0.057991 0.2222987,0.057991 z m 1.630994,0.2174661 q -0.1933032,0 -0.3455295,-0.086986 -0.14981,-0.089403 -0.2367964,-0.2392128 -0.08457,-0.1522262 -0.08457,-0.3431131 0,-0.1957195 0.08457,-0.3479458 0.08457,-0.1522263 0.2319638,-0.2367964 0.1473937,-0.086987 0.3382806,-0.086987 0.1425611,0 0.2609593,0.055575 0.1183983,0.053158 0.2126336,0.1618914 0.033828,0.038661 0.024163,0.079738 -0.00967,0.041077 -0.053158,0.072489 Q 4.689625,5.2701755 4.648548,5.2629265 4.607471,5.2532565 4.573643,5.2194335 4.4552448,5.0937864 4.2788556,5.0937864 q -0.1232308,0 -0.2174661,0.057991 -0.094235,0.055575 -0.1473937,0.1570588 -0.053158,0.1014842 -0.053158,0.2392128 0,0.1304796 0.053158,0.2319638 0.055575,0.1014842 0.1522263,0.1618914 0.096652,0.057991 0.224715,0.057991 0.08457,0 0.1473937,-0.01933 0.06524,-0.021747 0.1183982,-0.06524 0.038661,-0.031412 0.079738,-0.033828 0.041077,-0.00483 0.072489,0.021747 0.041077,0.033828 0.04591,0.077321 0.00483,0.041077 -0.028996,0.074905 -0.1739729,0.1618914 -0.4349322,0.1618914 z m 0.9230226,0.028995 q -0.067656,0 -0.1183982,-0.048326 -0.048326,-0.050742 -0.048326,-0.1183982 0,-0.070072 0.048326,-0.1183982 0.050742,-0.050742 0.1183982,-0.050742 0.070072,0 0.1183982,0.050742 0.048326,0.048326 0.048326,0.1183982 0,0.067656 -0.048326,0.1183982 -0.048326,0.048326 -0.1183982,0.048326 z"
           id="path11" /></g></g></g></svg>
